<svg width="456" height="85" viewBox="0 0 456 85" fill="none" xmlns="http://www.w3.org/2000/svg">
<rect x="16" y="73" width="440" height="12" rx="6" fill="#295F5F" fill-opacity="0.5"/>
<rect x="16" y="73" width="440" height="12" rx="6" fill="#54AFB5"/>
<path d="M22.756 38.2036C22.756 38.0388 22.756 37.8448 22.756 37.6218C22.756 37.3988 22.756 37.1661 22.756 36.9236C22.756 36.6812 22.756 36.4436 22.756 36.2109C22.7657 35.9782 22.7754 35.7648 22.7851 35.5709V35.5855C22.7948 35.12 22.7997 34.64 22.7997 34.1455C22.8094 33.6412 22.8142 33.1127 22.8142 32.56C22.8142 31.4933 22.7997 30.3879 22.7706 29.2436C22.7512 28.0994 22.6833 26.9115 22.5669 25.68C22.4506 24.4388 22.2712 23.1588 22.0287 21.84C21.7863 20.5115 21.4421 19.1345 20.996 17.7091L24.3851 16.6036C24.8797 18.1842 25.2627 19.7018 25.5342 21.1564C25.8154 22.6012 26.0191 23.9879 26.1451 25.3164C26.2809 26.6352 26.3633 27.9006 26.3924 29.1127C26.4215 30.3248 26.436 31.4885 26.436 32.6036C26.436 33.1564 26.4312 33.6897 26.4215 34.2036C26.4215 34.7079 26.4166 35.1927 26.4069 35.6582C26.3972 35.8521 26.3875 36.0655 26.3778 36.2982C26.3778 36.5212 26.3778 36.7491 26.3778 36.9818C26.3778 37.2145 26.3778 37.4376 26.3778 37.6509C26.3778 37.8642 26.3778 38.0485 26.3778 38.2036H22.756Z" fill="#2D2D2D"/>
<circle cx="234.5" cy="30.5" r="24.5" fill="#54AFB5"/>
<path d="M225.782 31.7825L232.5 38.5L245.935 25.065" stroke="#2B3F6C" stroke-width="4" stroke-linecap="round" stroke-linejoin="round"/>
</svg>
