<svg width="470" height="85" viewBox="0 0 470 85" fill="none" xmlns="http://www.w3.org/2000/svg">
<rect x="16" y="73" width="440" height="12" rx="6" fill="#295F5F" fill-opacity="0.5"/>
<rect x="16" y="73" width="112" height="12" rx="6" fill="#54AFB5"/>
<circle cx="24.5" cy="27.5" r="24.5" fill="#54AFB5"/>
<path d="M22.756 38.2036C22.756 38.0388 22.756 37.8448 22.756 37.6218C22.756 37.3988 22.756 37.1661 22.756 36.9236C22.756 36.6812 22.756 36.4436 22.756 36.2109C22.7657 35.9782 22.7754 35.7648 22.7851 35.5709V35.5855C22.7948 35.12 22.7997 34.64 22.7997 34.1455C22.8094 33.6412 22.8142 33.1127 22.8142 32.56C22.8142 31.4933 22.7997 30.3879 22.7706 29.2436C22.7512 28.0994 22.6833 26.9115 22.5669 25.68C22.4506 24.4388 22.2712 23.1588 22.0287 21.84C21.7863 20.5115 21.4421 19.1345 20.996 17.7091L24.3851 16.6036C24.8797 18.1842 25.2627 19.7018 25.5342 21.1564C25.8154 22.6012 26.0191 23.9879 26.1451 25.3164C26.2809 26.6352 26.3633 27.9006 26.3924 29.1127C26.4215 30.3248 26.436 31.4885 26.436 32.6036C26.436 33.1564 26.4312 33.6897 26.4215 34.2036C26.4215 34.7079 26.4166 35.1927 26.4069 35.6582C26.3972 35.8521 26.3875 36.0655 26.3778 36.2982C26.3778 36.5212 26.3778 36.7491 26.3778 36.9818C26.3778 37.2145 26.3778 37.4376 26.3778 37.6509C26.3778 37.8642 26.3778 38.0485 26.3778 38.2036H22.756Z" fill="#2D2D2D"/>
<circle cx="235" cy="32" r="20" fill="#295C5F"/>
<path d="M240.26 23.0182C240.281 23.0836 240.329 23.24 240.401 23.4873C240.474 23.7345 240.547 24.0327 240.62 24.3818C240.692 24.7236 240.758 25.0945 240.816 25.4945C240.874 25.8873 240.903 26.2655 240.903 26.6291C240.903 27.3782 240.78 28.0291 240.532 28.5818C240.285 29.1345 239.965 29.5927 239.572 29.9564C239.18 30.3127 238.732 30.5782 238.23 30.7527C237.736 30.9273 237.238 31.0145 236.736 31.0145C236.241 31.0145 235.787 30.9564 235.372 30.84C234.965 30.7164 234.583 30.5527 234.227 30.3491C234.292 30.9818 234.343 31.6109 234.38 32.2364C234.416 32.8618 234.441 33.5236 234.456 34.2218C234.47 34.9127 234.478 35.6618 234.478 36.4691C234.485 37.2764 234.485 38.1782 234.478 39.1745H231.794V36.5345C231.794 35.6764 231.78 34.7709 231.75 33.8182C231.729 32.8582 231.663 31.8509 231.554 30.7964C231.445 29.7418 231.278 28.6364 231.052 27.48C230.827 26.3236 230.514 25.1164 230.114 23.8582L232.7 23.0291L233.147 24.36C233.183 24.4691 233.241 24.6436 233.321 24.8836C233.409 25.1164 233.521 25.3818 233.66 25.68C233.798 25.9709 233.961 26.2727 234.15 26.5855C234.347 26.8909 234.572 27.1745 234.827 27.4364C235.081 27.6909 235.365 27.9018 235.678 28.0691C235.998 28.2291 236.35 28.3091 236.736 28.3091C236.823 28.3091 236.947 28.2945 237.107 28.2655C237.274 28.2364 237.438 28.1673 237.598 28.0582C237.765 27.9418 237.91 27.7709 238.034 27.5455C238.158 27.32 238.22 27.0145 238.22 26.6291C238.22 26.4036 238.201 26.16 238.165 25.8982C238.129 25.6291 238.081 25.3709 238.023 25.1236C237.972 24.8691 237.914 24.6327 237.849 24.4145C237.79 24.1891 237.736 24 237.685 23.8473L240.26 23.0182Z" fill="#DDDDDD"/>
<circle cx="450" cy="32" r="20" fill="#295C5F"/>
<path d="M456.41 23.0182C456.468 23.2727 456.53 23.5527 456.596 23.8582C456.668 24.1636 456.73 24.4873 456.781 24.8291C456.839 25.1636 456.887 25.5127 456.923 25.8764C456.959 26.2327 456.978 26.5927 456.978 26.9564C456.978 27.4945 456.912 28.0073 456.781 28.4945C456.65 28.9818 456.443 29.4109 456.159 29.7818C455.883 30.1527 455.527 30.4473 455.09 30.6655C454.654 30.8836 454.13 30.9927 453.519 30.9927C453.301 30.9927 453.065 30.9709 452.81 30.9273C452.563 30.8836 452.312 30.8109 452.058 30.7091C451.803 30.6 451.548 30.4582 451.294 30.2836C451.047 30.1018 450.81 29.8727 450.585 29.5964C450.243 30.0182 449.872 30.3309 449.472 30.5345C449.079 30.7382 448.698 30.8836 448.327 30.9709H448.338C448.228 31 448.108 31.0218 447.978 31.0364C447.847 31.0436 447.716 31.0473 447.585 31.0473C447.425 31.0473 447.258 31.0364 447.083 31.0145C446.908 30.9855 446.745 30.9455 446.592 30.8945C446.687 32.0145 446.741 33.0727 446.756 34.0691C446.778 35.0582 446.788 35.96 446.788 36.7745V39.1527H444.083V36.9927C444.083 36.1345 444.072 35.1709 444.05 34.1018C444.036 33.0327 443.974 31.92 443.865 30.7636C443.763 29.6 443.603 28.4291 443.385 27.2509C443.174 26.0655 442.872 24.9309 442.479 23.8473L445.043 22.9964C445.116 23.2436 445.185 23.4691 445.25 23.6727C445.316 23.8764 445.378 24.0836 445.436 24.2945C445.494 24.5055 445.552 24.7273 445.61 24.96C445.676 25.1927 445.745 25.4618 445.818 25.7673C445.89 26.0436 445.988 26.3345 446.112 26.64C446.236 26.9382 446.378 27.2109 446.538 27.4582C446.705 27.7055 446.89 27.9091 447.094 28.0691C447.305 28.2291 447.534 28.3091 447.781 28.3091C447.948 28.28 448.105 28.2109 448.25 28.1018C448.396 27.9927 448.523 27.8255 448.632 27.6C448.741 27.3745 448.825 27.0873 448.883 26.7382C448.948 26.3891 448.981 25.96 448.981 25.4509C448.981 25.2909 448.981 25.1491 448.981 25.0255C448.981 24.8945 448.978 24.7636 448.97 24.6327C448.97 24.4945 448.963 24.3418 448.948 24.1745C448.934 24.0073 448.916 23.8 448.894 23.5527L451.578 23.3127C451.665 24.2 451.752 24.96 451.839 25.5927C451.927 26.2182 452.032 26.7309 452.156 27.1309C452.279 27.5236 452.436 27.8109 452.625 27.9927C452.821 28.1745 453.068 28.2655 453.367 28.2655C453.607 28.2655 453.818 28.1564 453.999 27.9382C454.181 27.72 454.272 27.4145 454.272 27.0218C454.272 26.7309 454.254 26.4291 454.218 26.1164C454.181 25.8036 454.138 25.5018 454.087 25.2109C454.036 24.92 453.981 24.6509 453.923 24.4036C453.865 24.1564 453.81 23.9527 453.759 23.7927L456.41 23.0182Z" fill="#DDDDDD"/>
</svg>
