<svg width="474" height="85" viewBox="0 0 474 85" fill="none" xmlns="http://www.w3.org/2000/svg">
<rect x="16" y="73" width="440" height="12" rx="6" fill="#295F5F" fill-opacity="0.5"/>
<rect x="16" y="73" width="440" height="12" rx="6" fill="#54AFB5"/>
<circle cx="24.5" cy="27.5" r="24.5" fill="#54AFB5"/>
<path d="M22.756 38.2036C22.756 38.0388 22.756 37.8448 22.756 37.6218C22.756 37.3988 22.756 37.1661 22.756 36.9236C22.756 36.6812 22.756 36.4436 22.756 36.2109C22.7657 35.9782 22.7754 35.7648 22.7851 35.5709V35.5855C22.7948 35.12 22.7997 34.64 22.7997 34.1455C22.8094 33.6412 22.8142 33.1127 22.8142 32.56C22.8142 31.4933 22.7997 30.3879 22.7706 29.2436C22.7512 28.0994 22.6833 26.9115 22.5669 25.68C22.4506 24.4388 22.2712 23.1588 22.0287 21.84C21.7863 20.5115 21.4421 19.1345 20.996 17.7091L24.3851 16.6036C24.8797 18.1842 25.2627 19.7018 25.5342 21.1564C25.8154 22.6012 26.0191 23.9879 26.1451 25.3164C26.2809 26.6352 26.3633 27.9006 26.3924 29.1127C26.4215 30.3248 26.436 31.4885 26.436 32.6036C26.436 33.1564 26.4312 33.6897 26.4215 34.2036C26.4215 34.7079 26.4166 35.1927 26.4069 35.6582C26.3972 35.8521 26.3875 36.0655 26.3778 36.2982C26.3778 36.5212 26.3778 36.7491 26.3778 36.9818C26.3778 37.2145 26.3778 37.4376 26.3778 37.6509C26.3778 37.8642 26.3778 38.0485 26.3778 38.2036H22.756Z" fill="#2D2D2D"/>
<circle cx="235" cy="32" r="20" fill="#295C5F"/>
<circle cx="234.5" cy="27.5" r="24.5" fill="#54AFB5"/>
<path d="M240.846 16.6909C240.875 16.7782 240.938 16.9867 241.035 17.3164C241.132 17.6461 241.229 18.0436 241.326 18.5091C241.423 18.9648 241.51 19.4594 241.588 19.9927C241.665 20.5164 241.704 21.0206 241.704 21.5055C241.704 22.5042 241.539 23.3721 241.21 24.1091C240.88 24.8461 240.453 25.457 239.93 25.9418C239.406 26.417 238.81 26.7709 238.141 27.0036C237.481 27.2364 236.817 27.3527 236.148 27.3527C235.489 27.3527 234.882 27.2752 234.33 27.12C233.787 26.9552 233.278 26.737 232.802 26.4655C232.89 27.3091 232.958 28.1479 233.006 28.9818C233.055 29.8158 233.089 30.6982 233.108 31.6291C233.127 32.5503 233.137 33.5491 233.137 34.6255C233.147 35.7018 233.147 36.9042 233.137 38.2327H229.559V34.7127C229.559 33.5685 229.539 32.3612 229.501 31.0909C229.472 29.8109 229.384 28.4679 229.239 27.0618C229.093 25.6558 228.87 24.1818 228.57 22.64C228.269 21.0982 227.852 19.4885 227.319 17.8109L230.766 16.7055L231.362 18.48C231.411 18.6255 231.489 18.8582 231.595 19.1782C231.712 19.4885 231.862 19.8424 232.046 20.24C232.23 20.6279 232.449 21.0303 232.701 21.4473C232.962 21.8545 233.263 22.2327 233.602 22.5818C233.942 22.9212 234.32 23.2024 234.737 23.4255C235.164 23.6388 235.634 23.7455 236.148 23.7455C236.264 23.7455 236.429 23.7261 236.642 23.6873C236.865 23.6485 237.084 23.5564 237.297 23.4109C237.52 23.2558 237.714 23.0279 237.879 22.7273C238.044 22.4267 238.126 22.0194 238.126 21.5055C238.126 21.2048 238.102 20.88 238.053 20.5309C238.005 20.1721 237.942 19.8279 237.864 19.4982C237.796 19.1588 237.719 18.8436 237.632 18.5527C237.554 18.2521 237.481 18 237.413 17.7964L240.846 16.6909Z" fill="#2D2D2D"/>
<circle cx="450" cy="32" r="20" fill="#295C5F"/>
<circle cx="449.5" cy="27.5" r="24.5" fill="#54AFB5"/>
<path d="M457.547 16.6909C457.625 17.0303 457.707 17.4036 457.794 17.8109C457.891 18.2182 457.974 18.6497 458.042 19.1055C458.119 19.5515 458.182 20.017 458.231 20.5018C458.279 20.977 458.303 21.457 458.303 21.9418C458.303 22.6594 458.216 23.343 458.042 23.9927C457.867 24.6424 457.591 25.2145 457.212 25.7091C456.844 26.2036 456.369 26.5964 455.787 26.8873C455.205 27.1782 454.507 27.3236 453.692 27.3236C453.402 27.3236 453.086 27.2945 452.747 27.2364C452.417 27.1782 452.083 27.0812 451.743 26.9455C451.404 26.8 451.065 26.6109 450.725 26.3782C450.395 26.1358 450.08 25.8303 449.78 25.4618C449.324 26.0242 448.829 26.4412 448.296 26.7127C447.772 26.9842 447.263 27.1782 446.769 27.2945H446.783C446.638 27.3333 446.478 27.3624 446.303 27.3818C446.129 27.3915 445.954 27.3964 445.78 27.3964C445.566 27.3964 445.343 27.3818 445.111 27.3527C444.878 27.3139 444.66 27.2606 444.456 27.1927C444.582 28.6861 444.655 30.097 444.674 31.4255C444.703 32.7442 444.718 33.9467 444.718 35.0327V38.2036H441.111V35.3236C441.111 34.1794 441.096 32.8945 441.067 31.4691C441.048 30.0436 440.965 28.56 440.82 27.0182C440.684 25.4667 440.471 23.9055 440.18 22.3345C439.899 20.7539 439.496 19.2412 438.972 17.7964L442.391 16.6618C442.488 16.9915 442.58 17.2921 442.667 17.5636C442.754 17.8352 442.837 18.1115 442.914 18.3927C442.992 18.6739 443.069 18.9697 443.147 19.28C443.234 19.5903 443.326 19.9491 443.423 20.3564C443.52 20.7248 443.651 21.1127 443.816 21.52C443.981 21.9176 444.17 22.2812 444.383 22.6109C444.606 22.9406 444.854 23.2121 445.125 23.4255C445.406 23.6388 445.712 23.7455 446.042 23.7455C446.265 23.7067 446.473 23.6145 446.667 23.4691C446.861 23.3236 447.031 23.1006 447.176 22.8C447.322 22.4994 447.433 22.1164 447.511 21.6509C447.598 21.1855 447.642 20.6133 447.642 19.9345C447.642 19.7212 447.642 19.5321 447.642 19.3673C447.642 19.1927 447.637 19.0182 447.627 18.8436C447.627 18.6594 447.617 18.4558 447.598 18.2327C447.579 18.0097 447.554 17.7333 447.525 17.4036L451.103 17.0836C451.22 18.2667 451.336 19.28 451.452 20.1236C451.569 20.9576 451.709 21.6412 451.874 22.1745C452.039 22.6982 452.248 23.0812 452.5 23.3236C452.762 23.5661 453.091 23.6873 453.489 23.6873C453.809 23.6873 454.09 23.5418 454.332 23.2509C454.575 22.96 454.696 22.5527 454.696 22.0291C454.696 21.6412 454.672 21.2388 454.623 20.8218C454.575 20.4048 454.517 20.0024 454.449 19.6145C454.381 19.2267 454.308 18.8679 454.231 18.5382C454.153 18.2085 454.08 17.937 454.012 17.7236L457.547 16.6909Z" fill="#2D2D2D"/>
</svg>
