<svg width="470" height="85" viewBox="0 0 470 85" fill="none" xmlns="http://www.w3.org/2000/svg">
<rect x="16" y="73" width="440" height="12" rx="6" fill="#295F5F" fill-opacity="0.5"/>
<rect x="16" y="73" width="222" height="12" rx="6" fill="#54AFB5"/>
<circle cx="24.5" cy="27.5" r="24.5" fill="#54AFB5"/>
<path d="M22.756 38.2036C22.756 38.0388 22.756 37.8448 22.756 37.6218C22.756 37.3988 22.756 37.1661 22.756 36.9236C22.756 36.6812 22.756 36.4436 22.756 36.2109C22.7657 35.9782 22.7754 35.7648 22.7851 35.5709V35.5855C22.7948 35.12 22.7997 34.64 22.7997 34.1455C22.8094 33.6412 22.8142 33.1127 22.8142 32.56C22.8142 31.4933 22.7997 30.3879 22.7706 29.2436C22.7512 28.0994 22.6833 26.9115 22.5669 25.68C22.4506 24.4388 22.2712 23.1588 22.0287 21.84C21.7863 20.5115 21.4421 19.1345 20.996 17.7091L24.3851 16.6036C24.8797 18.1842 25.2627 19.7018 25.5342 21.1564C25.8154 22.6012 26.0191 23.9879 26.1451 25.3164C26.2809 26.6352 26.3633 27.9006 26.3924 29.1127C26.4215 30.3248 26.436 31.4885 26.436 32.6036C26.436 33.1564 26.4312 33.6897 26.4215 34.2036C26.4215 34.7079 26.4166 35.1927 26.4069 35.6582C26.3972 35.8521 26.3875 36.0655 26.3778 36.2982C26.3778 36.5212 26.3778 36.7491 26.3778 36.9818C26.3778 37.2145 26.3778 37.4376 26.3778 37.6509C26.3778 37.8642 26.3778 38.0485 26.3778 38.2036H22.756Z" fill="#2D2D2D"/>
<circle cx="235" cy="32" r="20" fill="#295C5F"/>
<circle cx="234.5" cy="27.5" r="24.5" fill="#54AFB5"/>
<path d="M240.846 16.6909C240.875 16.7782 240.938 16.9867 241.035 17.3164C241.132 17.6461 241.229 18.0436 241.326 18.5091C241.423 18.9648 241.51 19.4594 241.588 19.9927C241.665 20.5164 241.704 21.0206 241.704 21.5055C241.704 22.5042 241.539 23.3721 241.21 24.1091C240.88 24.8461 240.453 25.457 239.93 25.9418C239.406 26.417 238.81 26.7709 238.141 27.0036C237.481 27.2364 236.817 27.3527 236.148 27.3527C235.489 27.3527 234.882 27.2752 234.33 27.12C233.787 26.9552 233.278 26.737 232.802 26.4655C232.89 27.3091 232.958 28.1479 233.006 28.9818C233.055 29.8158 233.089 30.6982 233.108 31.6291C233.127 32.5503 233.137 33.5491 233.137 34.6255C233.147 35.7018 233.147 36.9042 233.137 38.2327H229.559V34.7127C229.559 33.5685 229.539 32.3612 229.501 31.0909C229.472 29.8109 229.384 28.4679 229.239 27.0618C229.093 25.6558 228.87 24.1818 228.57 22.64C228.269 21.0982 227.852 19.4885 227.319 17.8109L230.766 16.7055L231.362 18.48C231.411 18.6255 231.489 18.8582 231.595 19.1782C231.712 19.4885 231.862 19.8424 232.046 20.24C232.23 20.6279 232.449 21.0303 232.701 21.4473C232.962 21.8545 233.263 22.2327 233.602 22.5818C233.942 22.9212 234.32 23.2024 234.737 23.4255C235.164 23.6388 235.634 23.7455 236.148 23.7455C236.264 23.7455 236.429 23.7261 236.642 23.6873C236.865 23.6485 237.084 23.5564 237.297 23.4109C237.52 23.2558 237.714 23.0279 237.879 22.7273C238.044 22.4267 238.126 22.0194 238.126 21.5055C238.126 21.2048 238.102 20.88 238.053 20.5309C238.005 20.1721 237.942 19.8279 237.864 19.4982C237.796 19.1588 237.719 18.8436 237.632 18.5527C237.554 18.2521 237.481 18 237.413 17.7964L240.846 16.6909Z" fill="#2D2D2D"/>
<circle cx="450" cy="32" r="20" fill="#295C5F"/>
<path d="M456.41 23.0182C456.468 23.2727 456.53 23.5527 456.596 23.8582C456.668 24.1636 456.73 24.4873 456.781 24.8291C456.839 25.1636 456.887 25.5127 456.923 25.8764C456.959 26.2327 456.978 26.5927 456.978 26.9564C456.978 27.4945 456.912 28.0073 456.781 28.4945C456.65 28.9818 456.443 29.4109 456.159 29.7818C455.883 30.1527 455.527 30.4473 455.09 30.6655C454.654 30.8836 454.13 30.9927 453.519 30.9927C453.301 30.9927 453.065 30.9709 452.81 30.9273C452.563 30.8836 452.312 30.8109 452.058 30.7091C451.803 30.6 451.548 30.4582 451.294 30.2836C451.047 30.1018 450.81 29.8727 450.585 29.5964C450.243 30.0182 449.872 30.3309 449.472 30.5345C449.079 30.7382 448.698 30.8836 448.327 30.9709H448.338C448.228 31 448.108 31.0218 447.978 31.0364C447.847 31.0436 447.716 31.0473 447.585 31.0473C447.425 31.0473 447.258 31.0364 447.083 31.0145C446.908 30.9855 446.745 30.9455 446.592 30.8945C446.687 32.0145 446.741 33.0727 446.756 34.0691C446.778 35.0582 446.788 35.96 446.788 36.7745V39.1527H444.083V36.9927C444.083 36.1345 444.072 35.1709 444.05 34.1018C444.036 33.0327 443.974 31.92 443.865 30.7636C443.763 29.6 443.603 28.4291 443.385 27.2509C443.174 26.0655 442.872 24.9309 442.479 23.8473L445.043 22.9964C445.116 23.2436 445.185 23.4691 445.25 23.6727C445.316 23.8764 445.378 24.0836 445.436 24.2945C445.494 24.5055 445.552 24.7273 445.61 24.96C445.676 25.1927 445.745 25.4618 445.818 25.7673C445.89 26.0436 445.988 26.3345 446.112 26.64C446.236 26.9382 446.378 27.2109 446.538 27.4582C446.705 27.7055 446.89 27.9091 447.094 28.0691C447.305 28.2291 447.534 28.3091 447.781 28.3091C447.948 28.28 448.105 28.2109 448.25 28.1018C448.396 27.9927 448.523 27.8255 448.632 27.6C448.741 27.3745 448.825 27.0873 448.883 26.7382C448.948 26.3891 448.981 25.96 448.981 25.4509C448.981 25.2909 448.981 25.1491 448.981 25.0255C448.981 24.8945 448.978 24.7636 448.97 24.6327C448.97 24.4945 448.963 24.3418 448.948 24.1745C448.934 24.0073 448.916 23.8 448.894 23.5527L451.578 23.3127C451.665 24.2 451.752 24.96 451.839 25.5927C451.927 26.2182 452.032 26.7309 452.156 27.1309C452.279 27.5236 452.436 27.8109 452.625 27.9927C452.821 28.1745 453.068 28.2655 453.367 28.2655C453.607 28.2655 453.818 28.1564 453.999 27.9382C454.181 27.72 454.272 27.4145 454.272 27.0218C454.272 26.7309 454.254 26.4291 454.218 26.1164C454.181 25.8036 454.138 25.5018 454.087 25.2109C454.036 24.92 453.981 24.6509 453.923 24.4036C453.865 24.1564 453.81 23.9527 453.759 23.7927L456.41 23.0182Z" fill="#DDDDDD"/>
</svg>
