<svg width="67" height="96" viewBox="0 0 67 96" fill="none" xmlns="http://www.w3.org/2000/svg">
<circle cx="33.5" cy="34" r="33.5" fill="#295C5F"/>
<path d="M19 42.5V32.5C19 28.5218 20.5804 24.7064 23.3934 21.8934C26.2064 19.0804 30.0218 17.5 34 17.5C37.9782 17.5 41.7936 19.0804 44.6066 21.8934C47.4196 24.7064 49 28.5218 49 32.5V42.5" stroke="white" stroke-width="2" stroke-linecap="round" stroke-linejoin="round"/>
<path d="M49 44.1667C49 45.0508 48.6488 45.8986 48.0237 46.5237C47.3986 47.1489 46.5507 47.5 45.6667 47.5H44C43.1159 47.5 42.2681 47.1489 41.643 46.5237C41.0179 45.8986 40.6667 45.0508 40.6667 44.1667V39.1667C40.6667 38.2827 41.0179 37.4348 41.643 36.8097C42.2681 36.1846 43.1159 35.8334 44 35.8334H49V44.1667ZM19 44.1667C19 45.0508 19.3512 45.8986 19.9763 46.5237C20.6014 47.1489 21.4493 47.5 22.3333 47.5H24C24.8841 47.5 25.7319 47.1489 26.357 46.5237C26.9821 45.8986 27.3333 45.0508 27.3333 44.1667V39.1667C27.3333 38.2827 26.9821 37.4348 26.357 36.8097C25.7319 36.1846 24.8841 35.8334 24 35.8334H19V44.1667Z" stroke="white" stroke-width="2" stroke-linecap="round" stroke-linejoin="round"/>
<path d="M15.7236 87.5955C15.8764 87.7567 15.9888 87.9242 16.0609 88.0982C16.1373 88.2764 16.1754 88.4461 16.1754 88.6073C16.1754 88.9891 16.0694 89.3327 15.8573 89.6382C15.6494 89.9479 15.3651 90.2109 15.0045 90.4273C14.6439 90.6436 14.2239 90.8112 13.7445 90.93C13.2651 91.0488 12.7561 91.1082 12.2173 91.1082H10.5882C10.2488 91.1082 9.92211 91.0679 9.60817 90.9873C9.29848 90.9109 9.00787 90.7985 8.73636 90.65C8.46484 90.5058 8.21454 90.3276 7.98545 90.1155C7.7606 89.9076 7.56121 89.6721 7.38727 89.4091C6.97575 88.743 6.76999 87.9645 6.76999 87.0736C6.76999 86.5221 6.84424 85.9515 6.99272 85.3618C7.14545 84.7721 7.39151 84.1252 7.7309 83.4209L8.96545 84.0191C8.82545 84.3203 8.70454 84.6067 8.60272 84.8782C8.5009 85.1455 8.41605 85.4042 8.34817 85.6545C8.28454 85.9006 8.23787 86.1382 8.20817 86.3673C8.17848 86.5964 8.16363 86.8212 8.16363 87.0418C8.16363 87.6739 8.30363 88.2127 8.58363 88.6582C8.78727 88.9976 9.06514 89.2564 9.41727 89.4345C9.76939 89.6127 10.1597 89.7018 10.5882 89.7018H12.2173C12.5567 89.7018 12.877 89.6679 13.1782 89.6C13.4794 89.5321 13.7424 89.4409 13.9673 89.3264C14.1964 89.2118 14.3788 89.0761 14.5145 88.9191C14.6503 88.7664 14.7245 88.6009 14.7373 88.4227C14.6142 88.2827 14.4509 88.1618 14.2473 88.06C14.0436 87.9624 13.8145 87.8818 13.56 87.8182C13.3097 87.7545 13.0403 87.7036 12.7518 87.6655C12.4633 87.6315 12.1706 87.6082 11.8736 87.5955L11.9182 86.2018H17.69V87.5955H15.7236ZM19.6068 82.2945C19.6153 82.32 19.6322 82.39 19.6577 82.5045C19.6832 82.6148 19.7129 82.7527 19.7468 82.9182C19.785 83.0836 19.821 83.2661 19.855 83.4655C19.8932 83.6648 19.9271 83.8664 19.9568 84.07C19.9907 84.2694 20.0183 84.4645 20.0395 84.6555C20.0607 84.8421 20.0713 85.0055 20.0713 85.1455C20.0713 85.5655 20.0013 85.9303 19.8613 86.24C19.7213 86.5497 19.5389 86.8042 19.3141 87.0036C19.0935 87.203 18.8432 87.3515 18.5632 87.4491C18.2832 87.5467 18.0032 87.5955 17.7232 87.5955H16.005V86.2018H17.7677C17.8229 86.2018 17.9035 86.1933 18.0095 86.1764C18.1198 86.1594 18.228 86.117 18.3341 86.0491C18.4401 85.977 18.5313 85.8709 18.6077 85.7309C18.6883 85.5909 18.7286 85.3958 18.7286 85.1455C18.7286 85.0521 18.7201 84.9355 18.7032 84.7955C18.6862 84.6555 18.665 84.5048 18.6395 84.3436C18.6141 84.1824 18.5844 84.017 18.5504 83.8473C18.5165 83.6776 18.4825 83.5185 18.4486 83.37C18.4189 83.2215 18.3892 83.0879 18.3595 82.9691C18.3298 82.8503 18.3065 82.7591 18.2895 82.6955L19.6068 82.2945ZM17.4495 79.6918L18.5059 78.6227L19.5877 79.7045L18.5186 80.7736L17.4495 79.6918ZM24.5953 87.5955C24.1541 87.5955 23.7765 87.5679 23.4626 87.5127C23.1486 87.4576 22.8835 87.3748 22.6671 87.2645C22.455 87.1542 22.2832 87.0164 22.1516 86.8509C22.0244 86.6812 21.9268 86.4839 21.8589 86.2591C21.791 86.03 21.7465 85.7733 21.7253 85.4891C21.7041 85.2048 21.6935 84.8888 21.6935 84.5409V78.4191H23.0871V84.5409C23.0871 84.8973 23.0977 85.1858 23.1189 85.4064C23.1444 85.6227 23.2059 85.7903 23.3035 85.9091C23.4053 86.0279 23.5559 86.1064 23.7553 86.1445C23.9589 86.1827 24.2389 86.2018 24.5953 86.2018V87.5955ZM29.6629 86.2018V87.5955H29.1984C28.825 87.5955 28.4899 87.5445 28.1929 87.4427C27.896 87.3367 27.652 87.1818 27.4611 86.9782C27.232 87.1776 26.952 87.3303 26.6211 87.4364C26.2944 87.5424 25.9232 87.5955 25.5075 87.5955H24.3429V86.2018H25.5075C25.7875 86.2018 26.0102 86.1742 26.1757 86.1191C26.3454 86.0639 26.4726 85.9961 26.5575 85.9155C26.6423 85.8306 26.6975 85.7394 26.7229 85.6418C26.7484 85.54 26.7611 85.4424 26.7611 85.3491V83.1918H28.1484V85.3045C28.1484 85.4488 28.1696 85.5718 28.212 85.6736C28.2587 85.7712 28.316 85.8539 28.3838 85.9218C28.4517 85.9855 28.526 86.0364 28.6066 86.0745C28.6872 86.1127 28.7657 86.1424 28.842 86.1636C28.9226 86.1806 28.9947 86.1912 29.0584 86.1955C29.122 86.1997 29.1687 86.2018 29.1984 86.2018H29.6629ZM25.8066 89.88L26.8629 88.8109L27.9447 89.8927L26.8757 90.9618L25.8066 89.88ZM36.4406 86.2018V87.5955H35.4225C35.0491 87.5955 34.714 87.5445 34.417 87.4427C34.12 87.3367 33.8761 87.1818 33.6852 86.9782C33.4561 87.1776 33.1761 87.3303 32.8452 87.4364C32.5185 87.5424 32.1473 87.5955 31.7316 87.5955H29.4343V86.2018H31.7316C32.0116 86.2018 32.2343 86.1742 32.3997 86.1191C32.5694 86.0639 32.6967 85.9961 32.7816 85.9155C32.8664 85.8306 32.9216 85.7394 32.947 85.6418C32.9725 85.54 32.9852 85.4424 32.9852 85.3491V83.1918H34.3725V85.3045C34.3725 85.4488 34.3937 85.5718 34.4361 85.6736C34.4828 85.7712 34.54 85.8539 34.6079 85.9218C34.6758 85.9855 34.75 86.0364 34.8306 86.0745C34.9113 86.1127 34.9897 86.1424 35.0661 86.1636C35.1467 86.1806 35.2188 86.1912 35.2825 86.1955C35.3461 86.1997 35.3928 86.2018 35.4225 86.2018H36.4406ZM33.6597 91L32.6543 89.9818L33.647 88.9509L34.6779 89.9818L33.6597 91ZM31.2352 90.9873L30.2297 89.9691L31.2225 88.9382L32.2534 89.9691L31.2352 90.9873ZM40.9418 81.4545L39.9364 80.4364L40.9291 79.4055L41.96 80.4364L40.9418 81.4545ZM38.3836 81.4418L37.3782 80.4236L38.3646 79.3927L39.3955 80.4236L38.3836 81.4418ZM43.1946 86.2018V87.5955H42.1764C41.803 87.5955 41.4679 87.5445 41.1709 87.4427C40.8739 87.3367 40.63 87.1818 40.4391 86.9782C40.21 87.1776 39.93 87.3303 39.5991 87.4364C39.2724 87.5424 38.9012 87.5955 38.4855 87.5955H36.1882V86.2018H38.4855C38.7655 86.2018 38.9882 86.1742 39.1536 86.1191C39.3233 86.0639 39.4506 85.9961 39.5355 85.9155C39.6203 85.8306 39.6755 85.7394 39.7009 85.6418C39.7264 85.54 39.7391 85.4424 39.7391 85.3491V83.1918H41.1264V85.3045C41.1264 85.4488 41.1476 85.5718 41.19 85.6736C41.2367 85.7712 41.2939 85.8539 41.3618 85.9218C41.4297 85.9855 41.5039 86.0364 41.5846 86.0745C41.6652 86.1127 41.7436 86.1424 41.82 86.1636C41.9006 86.1806 41.9727 86.1912 42.0364 86.1955C42.1 86.1997 42.1467 86.2018 42.1764 86.2018H43.1946ZM42.8721 86.2018H43.6739C43.9454 86.2018 44.1639 86.1785 44.3294 86.1318C44.4991 86.0852 44.6306 86.0173 44.7239 85.9282C44.8172 85.8348 44.8788 85.7224 44.9085 85.5909C44.9424 85.4594 44.9594 85.3109 44.9594 85.1455V83.1982H46.353V85.1136C46.353 85.4912 46.4421 85.767 46.6203 85.9409C46.8027 86.1106 47.0912 86.1976 47.4857 86.2018C47.5536 86.1976 47.6385 86.1848 47.7403 86.1636C47.8463 86.1382 47.946 86.0894 48.0394 86.0173C48.1369 85.9409 48.2197 85.8348 48.2875 85.6991C48.3554 85.5591 48.3894 85.3745 48.3894 85.1455V83.1982H49.7766V85.1136C49.7766 85.4955 49.8679 85.7733 50.0503 85.9473C50.2327 86.117 50.5254 86.2018 50.9285 86.2018C51.043 86.2018 51.1554 86.1848 51.2657 86.1509C51.376 86.1127 51.4757 86.0533 51.5648 85.9727C51.6539 85.8921 51.726 85.7882 51.7812 85.6609C51.8406 85.5294 51.8745 85.3682 51.883 85.1773V83.1982H53.2766V85.1773C53.2851 85.5379 53.3933 85.7988 53.6012 85.96C53.8091 86.1212 54.1251 86.2018 54.5494 86.2018H55.2112V87.5955H54.5494C54.1166 87.5955 53.7348 87.5424 53.4039 87.4364C53.0772 87.3261 52.8015 87.1606 52.5766 86.94C52.373 87.1606 52.1248 87.3261 51.8321 87.4364C51.5436 87.5424 51.2424 87.5955 50.9285 87.5955C50.5297 87.5955 50.1797 87.5424 49.8785 87.4364C49.5772 87.3261 49.3121 87.1627 49.083 86.9464C48.8666 87.15 48.6185 87.3091 48.3385 87.4236C48.0627 87.5339 47.7869 87.5912 47.5112 87.5955H47.4666C47.0806 87.5955 46.7391 87.5403 46.4421 87.43C46.1451 87.3155 45.8885 87.1627 45.6721 86.9718C45.4303 87.1797 45.146 87.3367 44.8194 87.4427C44.4927 87.5445 44.1109 87.5955 43.6739 87.5955H42.8721V86.2018ZM48.663 80.5636L47.6448 81.5945L46.6266 80.5764L47.6448 79.5455L48.663 80.5636ZM51.393 80.5382L50.3875 81.5564L49.3375 80.5509L50.3685 79.52L51.393 80.5382ZM49.9866 78.7436L49.0321 79.6982L48.0903 78.7564L49.0448 77.8018L49.9866 78.7436ZM59.7171 82.2945C59.7256 82.32 59.7425 82.39 59.768 82.5045C59.7935 82.6148 59.8231 82.7527 59.8571 82.9182C59.8953 83.0836 59.9313 83.2661 59.9653 83.4655C60.0035 83.6648 60.0374 83.8664 60.0671 84.07C60.101 84.2694 60.1286 84.4645 60.1498 84.6555C60.171 84.8421 60.1816 85.0055 60.1816 85.1455C60.1816 85.5655 60.1116 85.9303 59.9716 86.24C59.8316 86.5497 59.6492 86.8042 59.4244 87.0036C59.2038 87.203 58.9535 87.3515 58.6735 87.4491C58.3935 87.5467 58.1135 87.5955 57.8335 87.5955H55.0016V86.2018H57.878C57.9331 86.2018 58.0138 86.1933 58.1198 86.1764C58.2301 86.1594 58.3383 86.117 58.4444 86.0491C58.5504 85.977 58.6416 85.8709 58.718 85.7309C58.7986 85.5909 58.8389 85.3958 58.8389 85.1455C58.8389 85.0521 58.8304 84.9355 58.8135 84.7955C58.7965 84.6555 58.7753 84.5048 58.7498 84.3436C58.7244 84.1824 58.6947 84.017 58.6607 83.8473C58.6268 83.6776 58.5928 83.5185 58.5589 83.37C58.5292 83.2215 58.4995 83.0879 58.4698 82.9691C58.4401 82.8503 58.4168 82.7591 58.3998 82.6955L59.7171 82.2945ZM55.5171 89.6891L56.5353 88.6709L57.5535 89.7018L56.5353 90.72L55.5171 89.6891ZM58.1707 89.7018L59.2016 88.6836L60.2198 89.7145L59.2016 90.7327L58.1707 89.7018ZM56.9044 91.4836L57.8462 90.5418L58.8007 91.4964L57.8589 92.4382L56.9044 91.4836Z" fill="white"/>
</svg>
